<?xml version="1.0" encoding="utf-8"?>
<!-- Generator: Adobe Illustrator 18.1.1, SVG Export Plug-In . SVG Version: 6.00 Build 0)  -->
<svg version="1.1" id="Layer_1" xmlns="http://www.w3.org/2000/svg" xmlns:xlink="http://www.w3.org/1999/xlink" x="0px" y="0px"
	 viewBox="0 0 1180 31" enable-background="new 0 0 1180 31" xml:space="preserve">
<path fill-rule="evenodd" clip-rule="evenodd" fill="#D6D6D6" d="M632,30c-4.4,0-10.5-2.5-13.7-5.6l-22.2-22
	c-3.1-3.1-8.2-3.1-11.3,0l-22.2,22c-3.1,3.1-9.2,5.6-13.7,5.6H0v1h549c4.4,0,10.5-2.5,13.7-5.6l22.2-22c3.1-3.1,8.2-3.1,11.3,0
	l22.2,22c3.1,3.1,9.2,5.6,13.7,5.6h548v-1H632z"/>
<rect x="586" y="26" fill-rule="evenodd" clip-rule="evenodd" width="1" height="1"/>
<rect x="587" y="25" fill-rule="evenodd" clip-rule="evenodd" width="1" height="1"/>
<rect x="588" y="24" fill-rule="evenodd" clip-rule="evenodd" width="1" height="1"/>
<rect x="589" y="23" fill-rule="evenodd" clip-rule="evenodd" width="1" height="1"/>
<rect x="590" y="22" fill-rule="evenodd" clip-rule="evenodd" width="1" height="1"/>
<rect x="591" y="23" fill-rule="evenodd" clip-rule="evenodd" width="1" height="1"/>
<rect x="592" y="24" fill-rule="evenodd" clip-rule="evenodd" width="1" height="1"/>
<rect x="593" y="25" fill-rule="evenodd" clip-rule="evenodd" width="1" height="1"/>
<rect x="594" y="26" fill-rule="evenodd" clip-rule="evenodd" width="1" height="1"/>
<rect x="594" y="30" fill-rule="evenodd" clip-rule="evenodd" width="1" height="1"/>
<rect x="593" y="29" fill-rule="evenodd" clip-rule="evenodd" width="1" height="1"/>
<rect x="592" y="28" fill-rule="evenodd" clip-rule="evenodd" width="1" height="1"/>
<rect x="591" y="27" fill-rule="evenodd" clip-rule="evenodd" width="1" height="1"/>
<rect x="590" y="26" fill-rule="evenodd" clip-rule="evenodd" width="1" height="1"/>
<rect x="589" y="27" fill-rule="evenodd" clip-rule="evenodd" width="1" height="1"/>
<rect x="588" y="28" fill-rule="evenodd" clip-rule="evenodd" width="1" height="1"/>
<rect x="587" y="29" fill-rule="evenodd" clip-rule="evenodd" width="1" height="1"/>
<rect x="586" y="30" fill-rule="evenodd" clip-rule="evenodd" width="1" height="1"/>
</svg>
