<?xml version="1.0" encoding="utf-8"?>
<!-- Generator: Adobe Illustrator 22.1.0, SVG Export Plug-In . SVG Version: 6.00 Build 0)  -->
<svg version="1.1" id="Layer_1" xmlns="http://www.w3.org/2000/svg" xmlns:xlink="http://www.w3.org/1999/xlink" x="0px" y="0px"
	 viewBox="0 0 138.3 95.7" style="enable-background:new 0 0 138.3 95.7;" xml:space="preserve">
<style type="text/css">
	.st0{font-family:'MyriadPro-Regular';}
	.st1{font-size:72px;}
	.st2{font-family:'TimesNewRomanPSMT';}
	.st3{font-size:28px;}
	.st4{letter-spacing:3;}
	.st5{fill:#FFFFFF;}
	.st6{stroke:#000000;stroke-width:2;stroke-miterlimit:10;}
	.st7{clip-path:url(#SVGID_2_);fill:#FFFFFF;}
</style>
<text transform="matrix(1 0 0 1 -1.7231 55.4824)" class="st0 st1">NOC</text>
<text transform="matrix(1 0 0 1 5 85.2832)" class="st2 st3 st4">MODELS</text>
<path class="st5" d="M71.7,6.2"/>
<path class="st5" d="M71.7,6.2"/>
<polyline class="st5" points="71.7,6.7 71.7,11.3 71.7,11.7 "/>
<path class="st5" d="M71.7,6.2"/>
<rect x="71.7" y="241.7" width="88" height="132"/>
<rect x="-16.3" y="241.7" class="st5" width="88" height="132"/>
<text transform="matrix(1.0056 0 0 1 3.6616 351.6479)" class="st0" style="font-size:37.2445px;">MODELS</text>
<g>
	<path class="st5" d="M72.1,326.5c3.3,0.3,5.7,1.4,7.5,3c2.2,2,3.6,5,3.6,9c0,4.1-1.3,7.4-3.6,9.8c-1.7,1.7-4.3,2.9-7.4,3.3
		 M72.1,349c5-1,7.7-4.7,7.7-10.4c0-5.1-2.5-8.6-7.7-9.5c-0.8-0.1-1.6-0.2-2.6-0.2 M65.7,349.1"/>
	<path class="st5" d="M100.4,339.9h-9.8v9h10.9v2.7H87.4v-25.1H101v2.7H90.6v7.9h9.8V339.9z"/>
	<path class="st5" d="M105.8,326.5h3.3v22.4h10.8v2.7h-14V326.5z"/>
	<path class="st5" d="M123,347.7c1.5,0.9,3.6,1.6,5.8,1.6c3.3,0,5.3-1.8,5.3-4.3c0-2.3-1.3-3.7-4.8-5c-4.1-1.5-6.7-3.6-6.7-7.1
		c0-3.9,3.3-6.8,8.2-6.8c2.6,0,4.5,0.6,5.6,1.2l-0.9,2.6c-0.8-0.4-2.5-1.2-4.8-1.2c-3.4,0-4.8,2-4.8,3.8c0,2.3,1.5,3.5,5,4.8
		c4.3,1.6,6.4,3.7,6.4,7.4c0,3.9-2.9,7.2-8.8,7.2c-2.4,0-5.1-0.7-6.4-1.6L123,347.7z"/>
</g>
<path class="st5" d="M71.7,264.2"/>
<path class="st5" d="M71.7,264.2"/>
<polyline class="st5" points="71.7,278.7 71.7,283.3 71.7,283.7 "/>
<path class="st5" d="M71.7,264.2"/>
<g>
	<path class="st6" d="M7.7,278.6l0-0.1l0.1-0.3c0.5-1.4,0.9-2.5,1.4-3.3c1.2-2.1,3-3.8,5.2-5c2.2-1.2,4.6-1.9,7.2-1.9
		c2.5,0,4.8,0.6,6.9,1.8c2.1,1.2,3.9,2.9,5.2,5c0.9,1.4,1.5,3,1.9,4.7c0.3,1.7,0.5,4.1,0.5,7.1v25c0,0.4-0.2,0.6-0.5,0.6
		c-0.4,0-0.6-0.2-0.6-0.6v-23.7c0-3.2-0.1-5.5-0.3-7c-0.2-1.5-0.5-2.8-1.1-4.1c-1-2.4-2.7-4.2-4.9-5.7c-2.2-1.4-4.6-2.1-7.2-2.1
		c-2.8,0-5.3,0.8-7.6,2.3c-2.3,1.5-3.9,3.6-4.9,6.1c-0.5,1.3-0.8,2.6-1,3.9c-0.2,1.3-0.2,3.5-0.2,6.5v23.7c0,0.4-0.2,0.6-0.5,0.6
		c-0.4,0-0.6-0.2-0.6-0.6v-42c0-0.4,0.2-0.6,0.6-0.6c0.3,0,0.5,0.2,0.5,0.6v5.6L7.7,278.6z"/>
	<path class="st6" d="M66.1,269c-5.3,0-10,1.9-14.1,5.6c-2.2,2-3.9,4.3-5.2,7c-1.2,2.7-1.9,5.5-2,8.3c0,0.5-0.2,0.7-0.6,0.7
		c-0.3,0-0.5-0.2-0.5-0.5c0-2.5,0.5-5,1.4-7.5c1.3-3.4,3.3-6.4,6-8.8c4.3-3.9,9.4-5.8,15.1-5.8c4.7,0,9,1.3,12.8,4
		c3.9,2.7,6.6,6.2,8.3,10.6c1,2.6,1.4,5.1,1.4,7.5c0,0.3-0.2,0.5-0.5,0.5c-0.3,0-0.5-0.2-0.6-0.7c-0.1-3.7-1-7-2.8-10.1
		c-2-3.4-4.7-6-7.9-7.9C73.9,270,70.2,269,66.1,269z M91,290.6c0.3,0,0.5,0.2,0.5,0.6c0,1.2-0.1,2.5-0.4,4c-0.5,2.4-1.3,4.7-2.6,6.8
		c-2,3.5-4.8,6.3-8.3,8.3c-3.5,2-7.3,3-11.3,3c-4.5,0-8.5-1.2-12.3-3.6c-3.7-2.4-6.5-5.6-8.4-9.7c-1.3-2.9-2-5.9-2-8.8
		c0-0.4,0.2-0.6,0.5-0.6c0.3,0,0.5,0.2,0.6,0.7c0,3,0.8,6,2.2,8.9c1.6,3.2,3.8,5.8,6.7,7.9c3.7,2.8,8.1,4.1,13,4.1
		c4.1,0,7.9-1.2,11.4-3.5c3.5-2.3,6.2-5.4,7.9-9.2c1.2-2.7,1.9-5.4,1.9-8.3C90.4,290.9,90.6,290.6,91,290.6z"/>
	<path class="st6" d="M120.6,268c6.3,0,11.6,2.2,15.9,6.5c0.5,0.5,0.7,0.8,0.7,1c0,0.4-0.2,0.6-0.5,0.6c-0.1,0-0.3-0.1-0.6-0.4
		c-1.8-2-4-3.5-6.7-4.7c-2.8-1.2-5.7-1.9-8.8-1.9c-3.9,0-7.5,1-10.9,2.9c-3.3,1.9-5.9,4.6-7.8,7.9c-1.9,3.3-2.9,6.9-2.9,10.8
		c0,6.4,2.4,11.8,7.1,16.1c4.1,3.7,8.9,5.5,14.3,5.5c2.9,0,5.8-0.6,8.8-1.9c2.9-1.3,5.2-2.9,6.9-4.8c0.2-0.2,0.3-0.3,0.5-0.3
		c0.3,0,0.5,0.2,0.5,0.6c0,0.5-0.8,1.3-2.4,2.5c-1.6,1.2-3.1,2.2-4.6,2.8c-3.2,1.5-6.4,2.2-9.8,2.2c-3.8,0-7.5-1-11-3
		c-3.5-2-6.3-4.8-8.3-8.3c-2-3.5-3.1-7.3-3.1-11.4c0-6.7,2.5-12.3,7.4-16.8C109.6,270,114.6,268.1,120.6,268z"/>
</g>
<path d="M36.3,279.3c-0.4-1.8-0.9-3.5-1.9-5c-1.4-2.3-3.2-4.1-5.5-5.3c-2.3-1.3-4.8-1.9-7.4-1.9c-2.7,0-5.4,0.7-7.7,2
	c-2.1,1.2-4.1,2.7-5.1,4.5v-3.9c0-1.1-0.7-1.6-1.5-1.6c-0.9,0-1.5,0.7-1.5,1.6v42c0,1,0.6,1.6,1.5,1.6c0.8,0,1.5-0.5,1.5-1.6v-23.7
	c0-3,0.2-5.1,0.3-6.4c0.1-1.2,0.5-2.5,0.9-3.7c0.9-2.3,2.5-4.3,4.5-5.7c2.1-1.4,4.5-2.1,7.1-2.1c2.4,0,4.6,0.7,6.7,2
	c2,1.3,3.5,3.1,4.5,5.2c0.5,1.2,0.7,2.4,0.9,3.8c0.2,1.4,0.1,3.7,0.1,6.9v23.7c0,1,0.6,1.6,1.5,1.6c0.8,0,1.5-0.5,1.5-1.6v-25
	C36.7,283.5,36.7,281.1,36.3,279.3z"/>
<path class="st5" d="M136.6,304.1c-0.3,0-0.9,0.1-1.3,0.7c-1.6,1.8-3.8,3.4-6.6,4.6c-2.8,1.2-5.6,1.8-8.4,1.8
	c-5.1,0-9.7-1.8-13.6-5.3c-4.5-4.1-6.8-9.3-6.8-15.4c0-3.7,0.9-7.1,2.7-10.3c1.8-3.1,4.3-5.7,7.5-7.5c3.2-1.8,6.7-2.8,10.4-2.8
	c2.9,0,5.7,0.6,8.4,1.8c2.5,1.1,4.7,2.6,6.3,4.5c0.3,0.4,0.8,0.8,1.3,0.8c0.9,0,1.5-0.6,1.5-1.6c0-0.5-0.3-0.9-1-1.7
	c-4.5-4.5-10.1-6.8-16.6-6.8c-6.2,0.1-11.5,2.1-15.8,6.1c-5.2,4.7-7.8,10.6-7.8,17.5c0,4.2,1.1,8.2,3.2,11.9c2.1,3.6,5,6.5,8.7,8.7
	c3.7,2.1,7.5,3.2,11.5,3.2c3.5,0,7-0.8,10.2-2.3c1.6-0.7,3.2-1.7,4.8-3c2.3-1.8,2.8-2.6,2.8-3.3
	C138.2,304.8,137.5,304.1,136.6,304.1z"/>
<g>
	<defs>
		<rect id="SVGID_1_" x="71.7" y="257.7" width="33" height="64"/>
	</defs>
	<clipPath id="SVGID_2_">
		<use xlink:href="#SVGID_1_"  style="overflow:visible;"/>
	</clipPath>
	<path class="st7" d="M90.9,289.7C90.9,289.7,90.9,289.7,90.9,289.7c-0.3,0-0.6,0.1-0.9,0.3c0-2.5-0.5-5.1-1.5-7.7
		c-1.8-4.6-4.7-8.3-8.7-11.1c-4-2.8-8.5-4.2-13.4-4.2c-6,0-11.3,2-15.8,6.1c-2.8,2.5-4.9,5.6-6.3,9.2c-1,2.7-1.5,5.3-1.5,7.9
		c0,0.9,0.6,1.5,1.5,1.5c0.3,0,0.6-0.1,0.9-0.3c0,3,0.7,6.1,2.1,9.1c1.9,4.2,4.9,7.6,8.7,10.1c3.9,2.5,8.2,3.8,12.8,3.8
		c4.2,0,8.2-1.1,11.8-3.2c3.6-2.1,6.5-5,8.7-8.7c1.3-2.2,2.2-4.6,2.7-7.1c0.3-1.5,0.4-2.9,0.4-4.1C92.5,290.3,91.9,289.7,90.9,289.7
		z M47.8,282c1.2-2.6,2.9-4.8,5-6.7c3.9-3.5,8.4-5.3,13.4-5.3c3.9,0,7.5,0.9,10.6,2.8c3.1,1.8,5.6,4.3,7.6,7.6
		c1.7,2.9,2.7,6.2,2.7,9.7c0.1,1.2,0.9,1.7,1.5,1.7c0.3,0,0.6-0.1,0.9-0.2c-0.1,2.6-0.7,5.2-1.8,7.7c-1.6,3.6-4.2,6.6-7.5,8.8
		c-3.4,2.2-7,3.3-10.8,3.3c-4.7,0-8.9-1.3-12.4-3.9c-2.7-2-4.9-4.5-6.4-7.5c-1.4-2.7-2.1-5.6-2.1-8.5c-0.1-1.2-0.9-1.6-1.6-1.6
		c-0.3,0-0.6,0.1-0.9,0.2C46,287.2,46.6,284.5,47.8,282z"/>
</g>
</svg>
